<?xml version="1.0" encoding="utf-8"?>
<!-- Generator: Adobe Illustrator 16.0.0, SVG Export Plug-In . SVG Version: 6.00 Build 0)  -->
<!DOCTYPE svg PUBLIC "-//W3C//DTD SVG 1.1//EN" "http://www.w3.org/Graphics/SVG/1.1/DTD/svg11.dtd">
<svg version="1.1" xmlns="http://www.w3.org/2000/svg" xmlns:xlink="http://www.w3.org/1999/xlink" x="0px" y="0px" width="110px"
	 height="110px" viewBox="511 44.75 110 110" enable-background="new 511 44.75 110 110" xml:space="preserve">
<g id="Camada_1">
	<path d="M539.602,119.297c-5.075,0-13.452-1.482-15.386-1.838c-1.357-0.25-2.256-1.553-2.007-2.91
		c0.25-1.359,1.562-2.259,2.91-2.008c6.431,1.181,14.19,2.122,16.05,1.658c0.519-0.129,2.006-0.604,3.889-1.204
		c16.908-5.392,35.233-10.623,42.993-8.534c1.333,0.359,2.123,1.73,1.764,3.064s-1.732,2.124-3.064,1.764
		c-7.381-1.989-32.063,5.884-40.174,8.47c-2.12,0.677-3.521,1.123-4.194,1.292C541.688,119.224,540.726,119.297,539.602,119.297z"/>
	<path d="M565.4,132c-12.279,0-22.356-10.065-22.779-10.494c-0.97-0.982-0.96-2.565,0.023-3.535c0.98-0.969,2.563-0.961,3.532,0.021
		l0,0c0.09,0.09,9.06,9.009,19.224,9.009c5.872,0,13.242-3.24,19.744-6.099c5.519-2.426,10.73-4.718,15.011-5.14
		c5.275-0.52,8.244,0.116,9.632,2.062c0.913,1.28,0.779,2.735,0.386,3.593c-0.574,1.253-2.055,1.81-3.314,1.23
		c-0.788-0.361-1.299-1.081-1.427-1.878c-0.641-0.147-2.022-0.306-4.786-0.031c-3.487,0.344-8.345,2.479-13.488,4.74
		C580.204,128.535,572.323,132,565.4,132z"/>
	<path d="M598.469,115.622c-0.408,0-0.821-0.1-1.203-0.31l-10.445-5.747c-1.21-0.666-1.65-2.186-0.985-3.396
		c0.666-1.21,2.188-1.65,3.396-0.985l10.445,5.747c1.21,0.666,1.65,2.186,0.985,3.396
		C600.206,115.154,599.351,115.622,598.469,115.622z"/>
	<path d="M524.667,113.001c-1.084,0-2.082-0.71-2.399-1.803c-0.164-0.564-3.939-13.963,3.385-25.19
		c4.905-7.52,13.5-12.142,25.545-13.736c12.383-1.639,21.974,0.579,28.507,6.594c9.237,8.503,8.72,21.34,8.693,21.882
		c-0.067,1.379-1.261,2.433-2.619,2.375c-1.378-0.067-2.439-1.237-2.375-2.614c0.006-0.148,0.387-11.118-7.118-17.995
		c-5.392-4.94-13.616-6.719-24.432-5.285c-10.534,1.395-17.94,5.268-22.014,11.511c-6.084,9.326-2.806,20.946-2.771,21.062
		c0.386,1.326-0.376,2.713-1.702,3.099C525.133,112.969,524.898,113.001,524.667,113.001z"/>
	<path d="M564.797,104.598L564.797,104.598c-5.319-0.001-9.609-3.995-9.979-9.291c-0.396-5.652,3.896-10.824,9.565-11.53
		c0.435-0.054,0.873-0.081,1.306-0.081c5.318,0,9.608,3.994,9.979,9.29c0.394,5.653-3.897,10.825-9.565,11.53
		C565.669,104.57,565.229,104.598,564.797,104.598z M565.689,88.696c-0.227,0-0.457,0.014-0.688,0.043
		c-3.077,0.383-5.407,3.173-5.194,6.219c0.185,2.646,2.329,4.64,4.99,4.64l0,0c0.227,0,0.457-0.015,0.689-0.043
		c3.076-0.383,5.407-3.174,5.194-6.221C570.496,90.69,568.35,88.696,565.689,88.696z"/>
</g>
<g id="Camada_2">
</g>
</svg>
