<?xml version="1.0" encoding="utf-8"?>
<!-- Generator: Adobe Illustrator 16.0.0, SVG Export Plug-In . SVG Version: 6.00 Build 0)  -->
<!DOCTYPE svg PUBLIC "-//W3C//DTD SVG 1.1//EN" "http://www.w3.org/Graphics/SVG/1.1/DTD/svg11.dtd">
<svg version="1.1" xmlns="http://www.w3.org/2000/svg" xmlns:xlink="http://www.w3.org/1999/xlink" x="0px" y="0px" width="110px"
	 height="110px" viewBox="848.417 44.75 110 110" enable-background="new 848.417 44.75 110 110" xml:space="preserve">
<g id="Camada_1">
	<path d="M935.941,144.199c-22,0-44,0-66,0c0.791,0.874,1.582,1.748,2.373,2.621c0-31.297,0-62.595,0-93.893
		c-0.874,0.791-1.748,1.582-2.621,2.373c22,0,44,0,66,0c-0.791-0.874-1.582-1.748-2.373-2.621c0,31.297,0,62.595,0,93.893
		c0,3.213,4.994,3.477,4.994,0.248c0-31.297,0-62.595,0-93.893c0-1.309-0.96-2.621-2.373-2.621c-22,0-44,0-66,0
		c-1.309,0-2.621,0.96-2.621,2.373c0,31.297,0,62.595,0,93.893c0,1.309,0.96,2.621,2.373,2.621c22,0,44,0,66,0
		C938.906,149.193,939.17,144.199,935.941,144.199z"/>
	<path d="M927.524,121.298c-16.389,0-32.777,0-49.166,0c0.791,0.874,1.582,1.747,2.373,2.621c0-20.265,0-40.53,0-60.795
		c-0.874,0.791-1.747,1.582-2.621,2.373c16.389,0,32.777,0,49.166,0c-0.791-0.874-1.582-1.748-2.373-2.621
		c0,20.265,0,40.53,0,60.795c0,3.212,4.994,3.477,4.994,0.248c0-20.265,0-40.53,0-60.795c0-1.309-0.96-2.621-2.373-2.621
		c-16.389,0-32.777,0-49.166,0c-1.309,0-2.621,0.96-2.621,2.373c0,20.265,0,40.53,0,60.795c0,1.309,0.96,2.621,2.373,2.621
		c16.389,0,32.777,0,49.166,0C930.488,126.292,930.753,121.298,927.524,121.298z"/>
	<path d="M883.067,99.312c5.205-2.601,12.419-5.492,18.312-3.853c1.491,0.415,2.768-0.793,3.144-2.108
		c1.495-5.223,3.144-9.872,7.07-13.77c-1.412-0.076-2.823-0.152-4.235-0.229c2.853,3.62,4.813,7.682,6.722,11.857
		c1.477,3.231,2.583,6.946,5.286,9.348c1.185,1.053,3.185,0.064,3.029-1.526c-0.375-3.841-2.68-7.513-4.235-11.014
		c-1.812-4.077-3.854-8.028-6.39-11.704c-0.757-1.098-2.624-1.65-3.726-0.687c-5.024,4.392-7.433,10.259-8.773,16.689
		c0.575-0.668,1.15-1.335,1.726-2.003c-6.891,2.27-12.971,2.898-18.484,8.189C882.155,98.845,882.616,99.538,883.067,99.312
		L883.067,99.312z"/>
</g>
<g id="Camada_2">
</g>
</svg>
