<?xml version="1.0" encoding="utf-8"?>
<!-- Generator: Adobe Illustrator 16.0.0, SVG Export Plug-In . SVG Version: 6.00 Build 0)  -->
<!DOCTYPE svg PUBLIC "-//W3C//DTD SVG 1.1//EN" "http://www.w3.org/Graphics/SVG/1.1/DTD/svg11.dtd">
<svg version="1.1" xmlns="http://www.w3.org/2000/svg" xmlns:xlink="http://www.w3.org/1999/xlink" x="0px" y="0px" width="110px"
	 height="110px" viewBox="369 44.75 110 110" enable-background="new 369 44.75 110 110" xml:space="preserve">
<g id="Camada_1">
	<g>
		<path d="M405.772,149.193c-1.877,0-3.929-0.469-6.02-1.406c-3.724-1.664-7.184-4.634-9.49-8.146
			c-0.758-1.153-0.437-2.703,0.718-3.462c1.152-0.757,2.703-0.438,3.462,0.718c1.77,2.694,4.519,5.059,7.354,6.326
			c2.453,1.1,4.78,1.277,6.072,0.465c1.171-0.733,2.713-0.383,3.447,0.785c0.735,1.169,0.384,2.713-0.785,3.447
			C409.18,148.77,407.555,149.193,405.772,149.193z"/>
		<path d="M407.459,76.988c-2.468,0-5.107-0.989-7.353-1.994c-3.845-1.72-7.413-4.783-9.791-8.406
			c-0.758-1.154-0.437-2.704,0.718-3.462c1.155-0.757,2.704-0.437,3.462,0.718c1.841,2.804,4.701,5.266,7.652,6.585
			c4.101,1.834,5.727,1.733,6.372,1.33c1.168-0.735,2.713-0.383,3.447,0.785c0.735,1.169,0.384,2.712-0.785,3.447
			C410.047,76.705,408.777,76.988,407.459,76.988z"/>
		<path d="M450.923,63.193c-1.928,0-3.879-0.46-5.964-1.393c-3.407-1.524-6.568-4.238-8.672-7.447
			c-0.757-1.154-0.435-2.704,0.72-3.461s2.703-0.436,3.462,0.72c1.57,2.394,4.012,4.497,6.531,5.624
			c2.795,1.25,4.504,1.065,5.933,0.678c1.336-0.357,2.706,0.426,3.067,1.759c0.361,1.333-0.427,2.706-1.759,3.067
			C453.128,63.042,452.029,63.193,450.923,63.193z"/>
		<path d="M409.851,147.56c-0.54,0-1.072-0.175-1.512-0.509c-0.623-0.473-0.988-1.209-0.988-1.991V73.875
			c0-1.122,0.747-2.106,1.828-2.408l44.598-12.447c0.75-0.21,1.562-0.056,2.184,0.417c0.623,0.473,0.988,1.209,0.988,1.991v71.183
			c0,1.122-0.747,2.106-1.828,2.408l-44.598,12.448C410.302,147.529,410.075,147.56,409.851,147.56z M412.351,75.773v65.993
			l39.598-11.053V64.722L412.351,75.773z"/>
		<path d="M392.405,134.433c-1.381,0-2.5-1.119-2.5-2.5V65.216c0-1.381,1.119-2.5,2.5-2.5s2.5,1.119,2.5,2.5v66.716
			C394.905,133.313,393.786,134.433,392.405,134.433z"/>
		<path d="M393.335,66.786c-1.115,0-2.132-0.752-2.421-1.883c-0.341-1.338,0.468-2.699,1.806-3.04l45.041-11.482
			c1.34-0.345,2.698,0.467,3.04,1.805c0.341,1.338-0.468,2.699-1.806,3.04l-45.041,11.482
			C393.747,66.761,393.539,66.786,393.335,66.786z"/>
	</g>
</g>
<g id="Camada_2">
</g>
</svg>
