<?xml version="1.0" encoding="utf-8"?>
<!-- Generator: Adobe Illustrator 16.0.0, SVG Export Plug-In . SVG Version: 6.00 Build 0)  -->
<!DOCTYPE svg PUBLIC "-//W3C//DTD SVG 1.1 Tiny//EN" "http://www.w3.org/Graphics/SVG/1.1/DTD/svg11-tiny.dtd" [
	<!ENTITY ns_flows "http://ns.adobe.com/Flows/1.0/">
	<!ENTITY ns_extend "http://ns.adobe.com/Extensibility/1.0/">
	<!ENTITY ns_ai "http://ns.adobe.com/AdobeIllustrator/10.0/">
	<!ENTITY ns_graphs "http://ns.adobe.com/Graphs/1.0/">
]>
<svg version="1.1" baseProfile="tiny" id="Camada_1" xmlns:x="&ns_extend;" xmlns:i="&ns_ai;" xmlns:graph="&ns_graphs;"
	 xmlns="http://www.w3.org/2000/svg" xmlns:xlink="http://www.w3.org/1999/xlink" xmlns:a="http://ns.adobe.com/AdobeSVGViewerExtensions/3.0/"
	 x="0px" y="0px" width="304px" height="60px" viewBox="0 0 304 60" xml:space="preserve">
<g>
	<path fill="#FFFFFF" d="M43.18,50.89h-4.01h-0.96v1.84h0.22h17.09h0.17v-1.84h-0.95h-4.01V40.88c0-4.6,0.68-8.05,2.03-10.37
		c1.18-2.03,2.66-2.9,4.43-2.61c-0.38,0.29-0.69,0.7-0.94,1.22c-0.24,0.53-0.36,1.08-0.36,1.66c0,1.05,0.36,1.95,1.07,2.69
		c0.71,0.75,1.57,1.12,2.58,1.12c1.11,0,2-0.41,2.68-1.22c0.68-0.82,1.01-1.88,1.01-3.19c0-1.38-0.52-2.54-1.56-3.48
		c-1.04-0.94-2.38-1.42-4.01-1.42c-1.49,0-2.86,0.46-4.11,1.39c-1.25,0.93-2.19,2.24-2.81,3.95v-3.38c0-0.36-0.1-0.65-0.29-0.84
		c-0.01,0-0.01-0.01-0.02-0.01H38.21v2.28h4.98V50.89z"/>
	<path fill="#FFFFFF" d="M206.23,50.89v0.43c-0.13,0.17-0.2,0.42-0.2,0.75c0,0.28,0.07,0.49,0.2,0.66v0.01h0.01h16.44h0.36v-1.84
		h-4.93V34.1h4.64c1.42,0,2.52,0.39,3.29,1.16c0.77,0.77,1.16,1.9,1.16,3.39c0,0.59,0.24,0.89,0.71,0.89c0.47,0,0.71-0.3,0.71-0.89
		V36.1v-3.09v-3.39v-2.25c0-0.59-0.24-0.89-0.71-0.89c-0.47,0-0.71,0.3-0.71,0.89c0,3.04-1.49,4.55-4.45,4.55h-4.64V16.98h8.8
		c2.02,0,3.49,0.68,4.4,2.03c0.82,1.22,1.23,3.08,1.23,5.59c0,0.26,0.08,0.48,0.24,0.64c0.16,0.17,0.39,0.25,0.71,0.25
		c0.6,0,0.9-0.3,0.9-0.89c-0.09-1.32-0.17-2.51-0.21-3.56s-0.07-2.26-0.07-3.61v-1.83c0-0.33-0.09-0.58-0.26-0.77
		c-0.1-0.1-0.2-0.17-0.32-0.21v-0.07h-26.91v0.06c-0.38,0.1-0.58,0.42-0.58,0.99c0,0.33,0.09,0.59,0.26,0.77
		c0.17,0.18,0.37,0.27,0.59,0.27h3.88v34.26H206.23z"/>
	<path fill="#FFFFFF" d="M76.87,46.79v-6.86c-4.41,0-6.61,2.01-6.61,6.04c0,0.98,0.25,1.76,0.76,2.34c0.5,0.58,1.07,0.87,1.69,0.87
		c0.52,0,1.13-0.18,1.82-0.54C75.22,48.28,76,47.66,76.87,46.79 M69.69,28.72c1.11,0.47,1.67,1.45,1.67,2.94
		c0,1.02-0.32,1.86-0.96,2.53c-0.64,0.67-1.45,1.01-2.42,1.01c-0.97,0-1.76-0.34-2.37-1.01c-0.61-0.67-0.91-1.52-0.91-2.53
		c0-1.89,0.92-3.42,2.76-4.6c1.84-1.18,3.8-1.77,5.88-1.77c3.92,0,6.75,0.98,8.49,2.95c1.74,1.97,2.6,5.16,2.6,9.57v10.72
		c0,1.13,0.23,1.7,0.68,1.7c0.38,0,0.73-0.21,1.04-0.63c0.59-0.76,0.92-1.18,0.99-1.26c0.28-0.23,0.54-0.34,0.78-0.34
		c0.35,0,0.69,0.19,1.04,0.56c0.17,0.26,0.26,0.5,0.26,0.72c0,0.63-0.23,1.12-0.68,1.45c-0.9,0.74-1.79,1.27-2.66,1.59
		c-0.87,0.31-1.91,0.47-3.12,0.47c-1.91,0-3.32-0.37-4.24-1.12c-0.67-0.56-1.22-1.47-1.64-2.74c-1.45,1.38-2.83,2.37-4.16,2.97
		c-1.33,0.6-2.65,0.9-3.96,0.9c-1.72,0-3.16-0.53-4.32-1.58c-1.15-1.05-1.73-2.52-1.73-4.41c0-2.9,1.46-5.13,4.37-6.69
		c2.57-1.38,5.83-2.07,9.79-2.07v-6.37c0-1.6-0.26-2.72-0.78-3.38c-0.52-0.65-1.44-0.98-2.76-0.98
		C71.46,27.3,70.24,27.77,69.69,28.72"/>
	<path fill="#FFFFFF" d="M104.47,28.99c-0.35-0.44-0.96-0.81-1.82-1.12c-0.87-0.31-1.81-0.46-2.81-0.46c-3.23,0-4.84,1.27-4.84,3.81
		c0,1.74,1.56,3.05,4.69,3.92l3.07,0.87c5,1.38,7.5,4.23,7.5,8.55c0,2.54-1.02,4.6-3.05,6.18c-2.03,1.58-4.54,2.37-7.52,2.37
		c-2.95,0-5.45-0.74-7.5-2.23c-2.05-1.49-3.07-3.19-3.07-5.12c0-1.16,0.31-2.03,0.94-2.61c0.62-0.58,1.35-0.87,2.19-0.87
		c0.8,0,1.49,0.31,2.08,0.92c0.59,0.62,0.88,1.34,0.88,2.18c0,1.38-0.64,2.34-1.93,2.89c0.66,0.87,1.59,1.52,2.79,1.93
		c1.2,0.42,2.47,0.63,3.83,0.63c1.56,0,2.82-0.37,3.77-1.12c0.95-0.74,1.43-1.79,1.43-3.13c0-1.01-0.51-1.88-1.54-2.58
		c-1.02-0.71-2.44-1.31-4.24-1.82l-2.66-0.76c-4.48-1.31-6.72-4.01-6.72-8.11c0-2.69,1.06-4.75,3.18-6.21
		c1.81-1.23,3.99-1.85,6.56-1.85c2.4,0,4.44,0.49,6.15,1.47c1.94,1.12,2.92,2.59,2.92,4.41c0,1.16-0.31,2.04-0.91,2.64
		c-0.61,0.6-1.33,0.9-2.16,0.9c-0.8,0-1.47-0.28-2-0.84c-0.54-0.56-0.81-1.26-0.81-2.1c0-0.62,0.14-1.15,0.42-1.61
		C103.55,29.65,103.95,29.28,104.47,28.99"/>
	<path fill="#FFFFFF" d="M186.11,36.98h6.48c0.3-0.75,0.45-1.58,0.45-2.52c0-0.99-0.24-1.83-0.72-2.5c-0.48-0.67-1.2-1-2.16-1
		c-1.14,0-2.05,0.49-2.72,1.47C186.76,33.41,186.32,34.93,186.11,36.98 M185.93,38.95l-0.05,2.12c0,3.68,0.43,6.29,1.28,7.83
		c0.85,1.54,2.2,2.31,4.03,2.31c1.68,0,3.12-0.41,4.34-1.23s2.08-2.01,2.59-3.56c0.09-0.32,0.18-0.52,0.27-0.62
		c0.15-0.19,0.34-0.28,0.59-0.28c0.57,0,0.85,0.28,0.85,0.85c0,0.09-0.02,0.22-0.05,0.38c-0.06,0.25-0.12,0.47-0.18,0.66
		c-0.84,2.02-2.17,3.52-4,4.49c-1.5,0.79-3.19,1.18-5.08,1.18c-3.21,0-5.89-0.99-8.05-2.96c-2.4-2.19-3.6-5.2-3.6-9.03
		c0-3.79,1.18-6.79,3.55-8.98c2.16-2,4.75-3.01,7.78-3.01c2.85,0,5.13,0.83,6.86,2.5c1.72,1.67,2.59,3.78,2.59,6.34v0.98H185.93z"/>
	<path fill="#FFFFFF" d="M245.43,46.84v-6.86c-4.41,0-6.61,2.01-6.61,6.04c0,0.98,0.25,1.76,0.75,2.34c0.5,0.58,1.07,0.87,1.69,0.87
		c0.52,0,1.13-0.18,1.82-0.54C243.78,48.33,244.56,47.72,245.43,46.84 M238.24,28.77c1.11,0.47,1.67,1.45,1.67,2.94
		c0,1.02-0.32,1.86-0.96,2.53c-0.64,0.67-1.45,1.01-2.42,1.01s-1.76-0.34-2.37-1.01c-0.61-0.67-0.91-1.52-0.91-2.53
		c0-1.89,0.92-3.42,2.76-4.6c1.84-1.18,3.8-1.77,5.88-1.77c3.92,0,6.75,0.98,8.49,2.95c1.73,1.97,2.6,5.16,2.6,9.57v10.72
		c0,1.13,0.22,1.7,0.68,1.7c0.38,0,0.73-0.21,1.04-0.63c0.59-0.76,0.92-1.18,0.99-1.26c0.28-0.23,0.54-0.34,0.78-0.34
		c0.35,0,0.69,0.19,1.04,0.56c0.17,0.26,0.26,0.5,0.26,0.72c0,0.63-0.23,1.12-0.68,1.45c-0.9,0.74-1.79,1.27-2.66,1.59
		c-0.87,0.32-1.91,0.47-3.12,0.47c-1.91,0-3.32-0.37-4.24-1.12c-0.67-0.56-1.22-1.48-1.64-2.75c-1.45,1.38-2.83,2.37-4.16,2.97
		c-1.33,0.6-2.65,0.9-3.96,0.9c-1.72,0-3.16-0.53-4.32-1.58s-1.73-2.52-1.73-4.41c0-2.9,1.46-5.13,4.37-6.7
		c2.57-1.38,5.83-2.07,9.79-2.07v-6.37c0-1.6-0.26-2.72-0.78-3.38c-0.52-0.65-1.44-0.98-2.76-0.98
		C240.01,27.36,238.8,27.83,238.24,28.77"/>
	<path fill="#FFFFFF" d="M264.32,20.11c0.38-1.96,0.64-3.19,0.78-3.7c0.31-1.12,0.78-1.69,1.41-1.69c0.73,0,1.09,0.83,1.09,2.5v9.09
		l6.09-0.05c0.62,0,0.94,0.34,0.94,1.03c0,0.35-0.09,0.6-0.26,0.78c-0.17,0.17-0.4,0.26-0.68,0.26h-6.09v19.59
		c0,1.78,0.5,2.67,1.51,2.67c0.66,0,1.23-0.4,1.72-1.21c0.38-0.66,0.64-1.51,0.78-2.56c0.14-1.04,0.59-1.57,1.35-1.57
		c0.76,0,1.15,0.46,1.15,1.37c0,1.54-0.59,2.92-1.77,4.17c-1.39,1.46-3.25,2.19-5.57,2.19c-1.98,0-3.56-0.58-4.74-1.75
		c-1.32-1.31-1.98-3.15-1.98-5.51v-17.4h-2.84h-1.69c-0.62,0-0.94-0.34-0.94-1.03c0-0.34,0.09-0.6,0.26-0.77
		c0.17-0.17,0.4-0.26,0.68-0.26c3.19,0,5.28-0.31,6.25-0.93C262.95,24.58,263.8,22.84,264.32,20.11"/>
	<path fill="#FFFFFF" d="M293.16,39.22c0-4.83-0.35-7.99-1.04-9.5c-0.7-1.51-2.1-2.26-4.22-2.26c-2.12,0-3.52,0.75-4.22,2.26
		c-0.7,1.51-1.04,4.67-1.04,9.5c0,4.83,0.35,7.99,1.04,9.5c0.69,1.51,2.1,2.26,4.22,2.26c2.12,0,3.52-0.75,4.22-2.26
		C292.81,47.22,293.16,44.05,293.16,39.22 M301.28,39.22c0,4.07-1.28,7.4-3.83,9.99c-2.55,2.6-5.74,3.89-9.55,3.89
		c-3.79,0-6.96-1.29-9.53-3.86c-2.57-2.58-3.85-5.92-3.85-10.02c0-4.06,1.28-7.39,3.83-9.99c2.55-2.59,5.74-3.89,9.56-3.89
		c3.78,0,6.96,1.29,9.53,3.86C300,31.78,301.28,35.12,301.28,39.22"/>
	<path fill="#FFFFFF" d="M119.38,20.22c1.18,0,2.19-0.44,3.05-1.33c0.85-0.89,1.28-1.95,1.28-3.19c0-1.23-0.43-2.29-1.28-3.18
		c-0.85-0.89-1.87-1.33-3.05-1.33c-1.18,0-2.18,0.45-3,1.33c-0.81,0.89-1.22,1.95-1.22,3.18c0,1.23,0.41,2.3,1.22,3.19
		C117.21,19.78,118.2,20.22,119.38,20.22"/>
	<path fill="#FFFFFF" d="M145.49,52.04c0-0.12-0.03-0.22-0.05-0.32v-0.83h-0.89h0h-4.01V10.91c0-0.29-0.08-0.52-0.2-0.7h-10.9
		c-0.26,0.18-0.4,0.49-0.4,0.98c0,0.36,0.09,0.65,0.29,0.84c0.19,0.2,0.41,0.3,0.65,0.3c0.35-0.06,0.75-0.12,1.22-0.18
		c0.47-0.06,0.4-0.09,1.79-0.09v38.83h-3.01h0h-0.97v1.84h0.23h16.09h0.11v-0.29C145.47,52.32,145.49,52.19,145.49,52.04"/>
	<path fill="#FFFFFF" d="M111.63,50.89L111.63,50.89h-0.92v1.01c0,0.05-0.02,0.08-0.02,0.14c0,0.04,0.01,0.07,0.02,0.11v0.59h0.18
		h17.09h0.16v-1.84h-0.94h0h-4.01V27.24c0-0.36-0.1-0.64-0.29-0.84c0,0-0.01-0.01-0.02-0.01h-11.35c-0.56,0.04-0.85,0.41-0.85,1.13
		c0,0.36,0.1,0.65,0.29,0.84c0.19,0.2,0.41,0.3,0.65,0.3c0.35-0.06,0.75-0.12,1.22-0.18c0.47-0.06,1.4-0.09,2.79-0.09v22.5H111.63z"
		/>
	<path fill="#FFFFFF" d="M29.11,32.38c1.8-0.56,3.31-1.56,4.54-3c1.36-1.58,2.04-3.38,2.04-5.41c0-2.69-1.01-4.84-3.03-6.45
		c-2.1-1.68-5.03-2.54-8.78-2.6H8.19C8.07,15.1,8,15.33,8,15.65c0,0.33,0.09,0.59,0.26,0.77c0.17,0.18,0.37,0.27,0.59,0.27h3.88
		v34.33H7.95v2.08h0.89c0,0,0,0,0,0c0,0,0,0,0.01,0h16.67c0.03,0,0.06,0,0.08,0c0.01,0,0.02,0,0.03,0h1.16v-0.04
		c3.46-0.17,6.15-1.09,8.07-2.77c2.13-1.87,3.2-4.43,3.2-7.68c0-2.58-0.85-4.81-2.53-6.68C33.84,34.07,31.7,32.88,29.11,32.38
		 M20.07,16.99h1.94c2.15,0,3.65,0.52,4.52,1.56c0.87,1.04,1.3,2.83,1.3,5.37c0,3.04-0.55,5.18-1.66,6.43
		c-0.95,1.06-2.45,1.58-4.5,1.58h-1.61V16.99z M28.9,49.01c-0.87,1.21-2.39,1.81-4.57,1.81h-4.26V34.11H24
		c1.99,0,3.52,0.76,4.59,2.29c1.07,1.53,1.61,3.6,1.61,6.22C30.2,45.67,29.77,47.8,28.9,49.01"/>
	<path fill="#FFFFFF" d="M179.41,50.45c-0.17-0.17-0.35-0.26-0.56-0.26h-3.46V16.76c0-0.28-0.08-0.49-0.2-0.66H165
		c-0.27,0.14-0.41,0.43-0.41,0.89c0,0.31,0.08,0.56,0.25,0.73c0.16,0.17,0.35,0.26,0.56,0.26h3.46v15.23
		c-0.72-1.29-1.65-2.29-2.79-3.01c-1.14-0.72-2.34-1.08-3.6-1.08c-2.7,0-4.89,1.1-6.56,3.31c-1.68,2.21-2.52,5.1-2.52,8.67
		c0,3.58,0.85,6.47,2.54,8.67c1.69,2.21,3.87,3.32,6.54,3.32c2.73,0,4.86-1.36,6.39-4.09v2.4c0,0.26,0.07,0.46,0.18,0.62h10.25
		c0.23-0.15,0.36-0.42,0.36-0.85C179.66,50.86,179.58,50.62,179.41,50.45 M167.02,48.59c-1.11,1.69-2.4,2.54-3.87,2.54
		c-1.17,0-1.92-0.67-2.25-2.02c-0.33-1.35-0.5-4.01-0.5-7.99c0-3.85,0.17-6.49,0.52-7.9c0.34-1.41,1.09-2.12,2.23-2.12
		c1.47,0,2.76,0.86,3.87,2.59c1.23,1.91,1.84,4.39,1.84,7.43C168.87,44.19,168.25,46.68,167.02,48.59"/>
</g>
</svg>
