<?xml version="1.0" encoding="utf-8"?>
<!-- Generator: Adobe Illustrator 16.0.0, SVG Export Plug-In . SVG Version: 6.00 Build 0)  -->
<!DOCTYPE svg PUBLIC "-//W3C//DTD SVG 1.1 Tiny//EN" "http://www.w3.org/Graphics/SVG/1.1/DTD/svg11-tiny.dtd" [
	<!ENTITY ns_flows "http://ns.adobe.com/Flows/1.0/">
	<!ENTITY ns_extend "http://ns.adobe.com/Extensibility/1.0/">
	<!ENTITY ns_ai "http://ns.adobe.com/AdobeIllustrator/10.0/">
	<!ENTITY ns_graphs "http://ns.adobe.com/Graphs/1.0/">
]>
<svg version="1.1" baseProfile="tiny" id="Camada_1" xmlns:x="&ns_extend;" xmlns:i="&ns_ai;" xmlns:graph="&ns_graphs;"
	 xmlns="http://www.w3.org/2000/svg" xmlns:xlink="http://www.w3.org/1999/xlink" xmlns:a="http://ns.adobe.com/AdobeSVGViewerExtensions/3.0/"
	 x="0px" y="0px" width="162px" height="178px" viewBox="0 0 162 178" xml:space="preserve">
<g>
	<path fill-rule="evenodd" d="M109.6,122.35c0,4.03,0.07,7.17-0.02,10.31c-0.22,7.61-4.51,12.37-11.99,12.45
		c-17.17,0.2-34.34,0.19-51.51,0c-7.31-0.08-11.95-4.56-12.01-11.86c-0.21-24.67-0.09-49.34-0.11-74.01c0-3.3,1.44-4.67,4.9-4.65
		c22,0.11,44.01,0.11,66.01,0.01c3.52-0.02,4.84,1.45,4.74,4.75c-0.04,1.31,0.11,2.62,0.21,4.52c3.26,0,6.38-0.09,9.5,0.02
		c9.28,0.33,15.54,6.71,15.58,15.9c0.04,9,0.04,18,0,27.01c-0.04,9.03-5.58,14.98-14.59,15.55
		C117.04,122.52,113.73,122.35,109.6,122.35z M39.34,60.71c0,24.49-0.1,48.45,0.1,72.41c0.04,4.15,3.13,6.67,7.31,6.7
		c16.66,0.13,33.32,0.14,49.98,0c4.88-0.04,7.06-2.59,7.25-7.6c0.11-2.99,0.2-6.01-0.01-8.99c-0.3-4.35,1.1-6.56,5.9-6.2
		c3.63,0.27,7.36,0.19,10.95-0.35c5.8-0.86,8.26-4.03,8.29-9.86c0.03-6.83-0.29-13.68,0.07-20.49c0.8-15.12-2.49-17.21-16.57-16.75
		c-8.09,0.27-8.09,0.05-8.81-7.77c-0.03-0.29-0.3-0.56-0.61-1.1C82.22,60.71,61.13,60.71,39.34,60.71z"/>
	<path fill-rule="evenodd" d="M123.44,93.61c0,4.49-0.02,8.98,0.01,13.47c0.02,3.12-1.46,4.55-4.59,4.47
		c-3.32-0.08-6.66-0.18-9.97,0.03c-3.23,0.21-4.75-1.36-4.79-4.27c-0.11-9.31-0.08-18.62-0.04-27.93c0.01-2.86,1.48-4.11,4.43-3.96
		c3.48,0.17,6.99,0.21,10.47-0.01c3.6-0.23,4.63,1.46,4.52,4.74C123.33,84.62,123.44,89.12,123.44,93.61z M118.11,105.43
		c0-7.67,0.15-15.09-0.2-22.49c-0.04-0.87-2.86-2.19-4.41-2.22c-1.27-0.02-3.65,1.53-3.69,2.46c-0.31,7.39-0.17,14.79-0.17,22.25
		C112.71,105.43,115.13,105.43,118.11,105.43z"/>
	<path fill-rule="evenodd" d="M101.04,25.98c5.9,6.51,5.88,13.78,1.18,18.11c-6.09,5.63-13.68,5.82-19.12,0.4
		c-1.17-1.17-2.22-2.49-3.17-3.84c-2.54-3.6-6.26-4.14-9.71-2.56c-3.62,1.67-4.88,5.41-4.03,9.32c0.46,2.14,1.93,4.49-1.32,5.1
		c-2.99,0.56-3.72-1.85-4.12-4.41c-1.09-6.95,1.95-12.92,7.99-15.33c6.3-2.51,12.19-0.51,16.3,5.53c2.71,4,6.99,5.7,10.66,3.82
		c3.87-1.98,5.08-5.27,4.2-9.63C99.56,30.82,100.48,28.89,101.04,25.98z"/>
</g>
</svg>
