<?xml version="1.0" encoding="utf-8"?>
<!-- Generator: Adobe Illustrator 16.0.0, SVG Export Plug-In . SVG Version: 6.00 Build 0)  -->
<!DOCTYPE svg PUBLIC "-//W3C//DTD SVG 1.1//EN" "http://www.w3.org/Graphics/SVG/1.1/DTD/svg11.dtd">
<svg version="1.1" xmlns="http://www.w3.org/2000/svg" xmlns:xlink="http://www.w3.org/1999/xlink" x="0px" y="0px" width="110px"
	 height="110px" viewBox="679.667 44.75 110 110" enable-background="new 679.667 44.75 110 110" xml:space="preserve">
<g id="Camada_1">
	<path d="M685.089,101.78c1.683,21.956,16.874,40.377,38.545,45.261c21.574,4.862,43.919-6.151,54.079-25.538
		c10.285-19.626,5.316-44.178-10.909-58.935c-16.377-14.895-41.372-16.386-59.772-4.408
		C692.477,67.635,684.287,84.562,685.089,101.78c0.178,3.829,6.172,4.164,5.992,0.299c-1.096-23.562,16.214-44.144,40.006-45.967
		c23.522-1.802,44.184,16.744,45.967,40.006c1.802,23.522-16.744,44.184-40.006,45.967c-23.522,1.803-44.184-16.744-45.967-40.006
		C690.79,98.275,684.794,97.93,685.089,101.78z"/>
	<path d="M709.533,72.594c6.395,1.833,14.096,8.062,13.415,15.285c-0.289,3.069-2.766,5.951-4.325,8.479
		c-1.789,2.9-3.645,5.817-5.273,8.814c-2.797,5.146-4.12,11.029-0.729,16.317c2.298,3.583,5.07,6.814,7.755,10.108
		c2.202,2.702,4.345,5.815,7.057,8.027c1.105,0.901,2.947-0.196,2.367-1.625c-1.324-3.256-4.007-5.925-6.186-8.633
		c-2.728-3.391-4.733-6.961-6.853-10.731c-2.22-3.951-3.246-8.087-1.1-12.334c1.88-3.721,5.15-6.282,7.803-9.384
		c2.684-3.137,6.301-11.257,1.889-14.658c-4.658-3.59-9.158-10.273-15.586-10.854C708.992,71.336,708.776,72.377,709.533,72.594
		L709.533,72.594z"/>
	<path d="M739.15,64.265c3.645,0.991,7.383,1.579,11.01,2.637c4.65,1.357,6.066,3.934,4.024,8.428
		c-1.706,3.758-5.196,6.523-7.704,9.731c-3.007,3.847-3.818,7.75-8.786,9.712c-1.578,0.623-1.734,2.416-0.663,3.566
		c2.775,2.979,5.832,5.464,9.057,7.931c3.932,3.007,2.393,5.604,0.074,9.415c-2.189,3.597-4.449,7.145-6.6,10.769
		c-1.82,3.067-4.308,5.816-5.951,8.949c-0.725,1.38,0.715,2.546,2.002,2.239c3.332-0.794,5.363-5.507,6.988-8.16
		c3.127-5.107,6.742-10.246,9.342-15.632c4.207-8.721-7.383-13.446-12.174-18.69c-0.221,1.188-0.441,2.378-0.663,3.566
		c6.181-2.297,7.533-6.523,11.218-11.463c3.429-4.597,7.396-8.036,8.867-13.807c2.646-10.39-13.478-11.488-19.887-11.742
		C737.768,61.654,737.836,63.907,739.15,64.265L739.15,64.265z"/>
	<path d="M772.843,79.721c-4.531,0.898-8.072,4.993-10.472,8.698c-3.199,4.941-0.944,10.087,2.947,13.708
		c0.08-1.479,0.159-2.959,0.239-4.439c-4.68,2.674-9.943,7.757-6.376,13.516c2.548,4.111,9.948,9.588,14.902,7.71
		c1.197-0.453,1.779-1.985,0.989-3.065c-1.812-2.477-5.056-2.948-7.679-4.424c-1.444-0.812-2.899-2.061-3.582-3.598
		c-1.086-2.443,3.401-4.633,4.931-5.514c1.627-0.938,1.479-3.294,0.239-4.439c-6.826-6.307,3.147-11.104,4.685-17.222
		C773.781,80.198,773.333,79.624,772.843,79.721L772.843,79.721z"/>
</g>
<g id="Camada_2">
</g>
</svg>
